#!OML:ASF I:\Actors\actors\Patient Classification 1\Patient 1\Session 1\Subject1.ASF
:FULLY-SPECIFIED
:DEGREES
683
root 0.662366 17.4487 9.65032 10.0114 -3.35085 -9.37281
lowerback -5.03252 1.58382 7.08174
upperback -9.38345 2.17996 2.03809
thorax -6.87654 0.682601 -1.8238
lowerneck -9.54729 -3.54561 -4.74497
upperneck 18.2045 -6.64464 12.9189
head 7.76924 -2.37739 4.42487
rclavicle -2.13694e-015 -2.76311e-014
rhumerus -51.4274 3.35908 -93.5456
rradius 102.308
rwrist 17.3188
rhand 8.89018 -33.2084
rfingers 7.12502
rthumb 34.073 -59.9759
lclavicle -2.13694e-015 -2.76311e-014
lhumerus -7.26705 -22.9586 94.1006
lradius 137.767
lwrist 13.3347
lhand -18.5631 -7.84873
lfingers 7.12502
lthumb 7.72683 21.9901
rfemur -3.547 23.6904 26.0422
rtibia 3.30072
rfoot -12.736 -23.6602
rtoes 1.51996
lfemur 9.11076 -47.3155 -15.2886
ltibia -5.07267
lfoot -33.5087 56.2586
ltoes 20.1918
684
root 0.661289 17.4488 9.64531 9.99828 -3.32122 -9.40844
lowerback -4.98569 1.60094 7.12223
upperback -9.30635 2.20225 2.02692
thorax -6.81558 0.694006 -1.85889
lowerneck -9.64807 -3.66708 -4.82667
upperneck 18.682 -6.86013 12.9318
head 7.96968 -2.46528 4.42968
rclavicle 1.03865e-014 4.41302e-014
rhumerus -51.4433 3.29759 -93.5505
rradius 102.316
rwrist 17.3711
rhand 8.89824 -33.2398
rfingers 7.12502
rthumb 34.0806 -60.0056
lclavicle 1.03865e-014 4.41302e-014
lhumerus -8.40096 -23.1467 94.7139
lradius 137.782
lwrist 13.4681
lhand -18.3082 -7.56097
lfingers 7.12502
lthumb 7.97285 22.2687
rfemur -3.53937 23.6723 26.0934
rtibia 3.28377
rfoot -12.7063 -23.6681
rtoes 1.44537
lfemur 9.05286 -47.2557 -15.1886
ltibia -5.06604
lfoot -33.2549 56.2412
ltoes 20.0355
685
root 0.66002 17.4492 9.63904 9.99211 -3.28458 -9.40781
lowerback -4.91476 1.60579 7.12101
upperback -9.23351 2.21125 2.01998
thorax -6.77499 0.701073 -1.86711
lowerneck -9.64296 -3.75838 -4.93198
upperneck 19.0154 -7.02271 12.9883
head 8.10106 -2.53444 4.45716
rclavicle 1.98785e-016 -3.33958e-014
rhumerus -51.4266 3.22912 -93.5563
rradius 102.313
rwrist 17.3582
rhand 8.96214 -33.1578
rfingers 7.12502
rthumb 34.1413 -59.9101
lclavicle 1.98785e-016 -3.33958e-014
lhumerus -9.38531 -23.3722 95.2939
lradius 137.777
lwrist 13.5986
lhand -18.2098 -7.65531
lfingers 7.12502
lthumb 8.0678 22.1707
rfemur -3.55551 23.6665 26.0954
rtibia 3.28666
rfoot -12.6893 -23.6915
rtoes 1.42482
lfemur 9.00269 -47.3043 -15.1475
ltibia -5.04894
lfoot -33.2667 56.2595
ltoes 20.0439
686
root 0.659022 17.4482 9.6325 9.95167 -3.21587 -9.33713
lowerback -4.80944 1.58705 7.03462
upperback -9.16255 2.19293 2.01772
thorax -6.75987 0.699593 -1.8242
lowerneck -9.59541 -3.82868 -5.02052
upperneck 19.2961 -7.14112 12.9882
head 8.20037 -2.58983 4.46646
rclavicle -1.8487e-014 1.05356e-014
rhumerus -51.4472 3.18964 -93.5292
rradius 102.337
rwrist 17.2856
rhand 9.06706 -33.0806
rfingers 7.12502
rthumb 34.2409 -59.8106
lclavicle -1.8487e-014 1.05356e-014
lhumerus -10.2887 -23.6244 95.8914
lradius 137.819
lwrist 13.5782
lhand -18.1526 -8.00937
lfingers 7.12502
lthumb 8.12309 21.8145
rfemur -3.52484 23.6573 26.0357
rtibia 3.29415
rfoot -12.7664 -23.738
rtoes 1.65861
lfemur 8.99299 -47.3806 -15.2308
ltibia -5.0026
lfoot -33.3068 56.2339
ltoes 20.0749
687
root 0.657658 17.4469 9.62608 9.90025 -3.13363 -9.30152
lowerback -4.67359 1.56726 6.97512
upperback -9.09328 2.17733 2.04079
thorax -6.7646 0.697987 -1.77032
lowerneck -9.72357 -3.86584 -5.11819
upperneck 19.7233 -7.19978 12.8717
head 8.37143 -2.61689 4.4449
rclavicle -3.47873e-016 -1.98785e-016
rhumerus -51.5044 3.19045 -93.4826
rradius 102.396
rwrist 17.2515
rhand 9.11021 -33.108
rfingers 7.12502
rthumb 34.2819 -59.8287
lclavicle -3.47873e-016 -1.98785e-016
lhumerus -10.9972 -23.8265 96.3636
lradius 137.925
lwrist 13.4846
lhand -18.0099 -8.23728
lfingers 7.12502
lthumb 8.26077 21.5812
rfemur -3.48484 23.638 26.0271
rtibia 3.30813
rfoot -12.8322 -23.7896
rtoes 1.77142
lfemur 8.96953 -47.3677 -15.2527
ltibia -4.96231
lfoot -33.2365 56.1482
ltoes 20.0671
688
root 0.655167 17.4468 9.61981 9.89269 -3.04045 -9.31025
lowerback -4.57781 1.56742 6.97104
upperback -9.03715 2.18468 2.05482
thorax -6.75786 0.703894 -1.75569
lowerneck -9.74693 -3.99061 -5.09349
upperneck 19.9257 -7.35724 12.6568
head 8.45045 -2.70205 4.35274
rclavicle 1.48095e-014 -2.48481e-014
rhumerus -51.5462 3.15218 -93.4639
rradius 102.421
rwrist 17.2839
rhand 9.06506 -33.1659
rfingers 7.12502
rthumb 34.239 -59.8963
lclavicle 1.48095e-014 -2.48481e-014
lhumerus -11.483 -24.0171 96.6731
lradius 138.003
lwrist 13.4744
lhand -17.8164 -8.05977
lfingers 7.12502
lthumb 8.44756 21.7513
rfemur -3.50108 23.6325 26.0528
rtibia 3.31922
rfoot -12.8556 -23.866
rtoes 1.79142
lfemur 8.85397 -47.3267 -15.1342
ltibia -4.94413
lfoot -33.0015 56.0905
ltoes 19.9636
689
root 0.651572 17.447 9.61337 9.94021 -2.96805 -9.3335
lowerback -4.5786 1.5864 6.96149
upperback -8.97548 2.20745 2.06869
thorax -6.68865 0.71993 -1.73572
lowerneck -9.80957 -4.06999 -5.15207
upperneck 20.1667 -7.47768 12.6187
head 8.55622 -2.75693 4.34065
rclavicle -7.8023e-015 -2.68359e-014
rhumerus -51.5279 3.05794 -93.4257
rradius 102.38
rwrist 17.362
rhand 9.0466 -33.0792
rfingers 7.12502
rthumb 34.2215 -59.8135
lclavicle -7.8023e-015 -2.68359e-014
lhumerus -11.7942 -24.204 96.8638
lradius 138.049
lwrist 13.5635
lhand -17.5898 -7.94414
lfingers 7.12502
lthumb 8.66616 21.858
rfemur -3.59072 23.6334 26.07
rtibia 3.34485
rfoot -12.8696 -23.9225
rtoes 1.87872
lfemur 8.65998 -47.2893 -14.9301
ltibia -4.93697
lfoot -32.7509 56.0665
ltoes 19.8813
